<svg width="19" height="18" viewBox="0 0 19 18" fill="none" xmlns="http://www.w3.org/2000/svg">
<path d="M14.375 14.625H11.375" stroke="white" stroke-width="1.5" stroke-linecap="round" stroke-linejoin="round"/>
<path d="M12.875 16.125V13.125" stroke="white" stroke-width="1.5" stroke-linecap="round" stroke-linejoin="round"/>
<path d="M9.61995 8.1525C9.54495 8.145 9.45495 8.145 9.37245 8.1525C7.58745 8.0925 6.16995 6.63 6.16995 4.83C6.16245 2.9925 7.65495 1.5 9.49245 1.5C11.33 1.5 12.8225 2.9925 12.8225 4.83C12.8225 6.63 11.3974 8.0925 9.61995 8.1525Z" stroke="white" stroke-width="1.5" stroke-linecap="round" stroke-linejoin="round"/>
<path d="M9.49253 16.3575C8.12753 16.3575 6.77003 16.0125 5.73503 15.3225C3.92003 14.1075 3.92003 12.1275 5.73503 10.92C7.79753 9.54001 11.18 9.54001 13.2425 10.92" stroke="white" stroke-width="1.5" stroke-linecap="round" stroke-linejoin="round"/>
</svg>
