<svg width="18" height="18" viewBox="0 0 18 18" fill="none" xmlns="http://www.w3.org/2000/svg">
<path d="M9 4.83032V7.32782" stroke="white" stroke-width="1.5" stroke-miterlimit="10" stroke-linecap="round"/>
<path d="M9.01505 1.50024C6.25505 1.50024 4.02005 3.73524 4.02005 6.49524V8.07024C4.02005 8.58024 3.81005 9.34524 3.54755 9.78024L2.59505 11.3702C2.01005 12.3527 2.41505 13.4477 3.49505 13.8077C7.08005 15.0002 10.9575 15.0002 14.5425 13.8077C15.555 13.4702 15.99 12.2852 15.4425 11.3702L14.49 9.78024C14.2275 9.34524 14.0175 8.57274 14.0175 8.07024V6.49524C14.01 3.75024 11.76 1.50024 9.01505 1.50024Z" stroke="white" stroke-width="1.5" stroke-miterlimit="10" stroke-linecap="round"/>
<path d="M11.4974 14.1152C11.4974 15.4877 10.3724 16.6127 8.99994 16.6127C8.31744 16.6127 7.68744 16.3277 7.23744 15.8777C6.78744 15.4277 6.50244 14.7977 6.50244 14.1152" stroke="white" stroke-width="1.5" stroke-miterlimit="10"/>
</svg>
