<svg width="18" height="18" viewBox="0 0 18 18" fill="none" xmlns="http://www.w3.org/2000/svg">
<path d="M13.1997 4.56885C13.2699 4.56885 13.3121 4.58327 13.3433 4.60498L13.3716 4.62842C13.4062 4.66299 13.4312 4.70686 13.4312 4.80029C13.4311 4.87019 13.4166 4.91173 13.395 4.94287L13.3716 4.97119L9.69678 8.64697L9.34326 9.00049L13.3716 13.0288C13.4061 13.0633 13.4311 13.1066 13.4312 13.1997C13.4312 13.2931 13.4062 13.337 13.3716 13.3716C13.337 13.4062 13.2931 13.4312 13.1997 13.4312C13.1298 13.4311 13.0883 13.4167 13.0571 13.395L13.0288 13.3716L9.00049 9.34326L8.64697 9.69678L4.97119 13.3716C4.93668 13.406 4.89342 13.4311 4.80029 13.4312C4.72998 13.4312 4.68795 13.4168 4.65674 13.395L4.62842 13.3716C4.5939 13.337 4.56885 13.2931 4.56885 13.1997C4.5689 13.1299 4.58336 13.0882 4.60498 13.0571L4.62842 13.0288L8.65674 9.00049L8.30322 8.64697L4.62842 4.97119C4.59402 4.93669 4.56888 4.89333 4.56885 4.80029C4.56885 4.73005 4.58321 4.68794 4.60498 4.65674L4.62842 4.62842C4.66299 4.59385 4.70686 4.56885 4.80029 4.56885C4.87012 4.56887 4.91174 4.58339 4.94287 4.60498L4.97119 4.62842L8.64697 8.30322L9.00049 8.65674L13.0288 4.62842C13.0633 4.594 13.1067 4.56892 13.1997 4.56885Z" fill="#59595B" stroke="#D73F42"/>
</svg>
