<svg width="18" height="18" viewBox="0 0 18 18" fill="none" xmlns="http://www.w3.org/2000/svg">
<path d="M9 11.2502C10.2426 11.2502 11.25 10.2429 11.25 9.00024C11.25 7.7576 10.2426 6.75024 9 6.75024C7.75736 6.75024 6.75 7.7576 6.75 9.00024C6.75 10.2429 7.75736 11.2502 9 11.2502Z" stroke="white" stroke-width="1.5" stroke-miterlimit="10" stroke-linecap="round" stroke-linejoin="round"/>
<path d="M1.5 9.66032V8.34032C1.5 7.56032 2.1375 6.91532 2.925 6.91532C4.2825 6.91532 4.8375 5.95532 4.155 4.77782C3.765 4.10282 3.9975 3.22532 4.68 2.83532L5.9775 2.09282C6.57 1.74032 7.335 1.95032 7.6875 2.54282L7.77 2.68532C8.445 3.86282 9.555 3.86282 10.2375 2.68532L10.32 2.54282C10.6725 1.95032 11.4375 1.74032 12.03 2.09282L13.3275 2.83532C14.01 3.22532 14.2425 4.10282 13.8525 4.77782C13.17 5.95532 13.725 6.91532 15.0825 6.91532C15.8625 6.91532 16.5075 7.55282 16.5075 8.34032V9.66032C16.5075 10.4403 15.87 11.0853 15.0825 11.0853C13.725 11.0853 13.17 12.0453 13.8525 13.2228C14.2425 13.9053 14.01 14.7753 13.3275 15.1653L12.03 15.9078C11.4375 16.2603 10.6725 16.0503 10.32 15.4578L10.2375 15.3153C9.5625 14.1378 8.4525 14.1378 7.77 15.3153L7.6875 15.4578C7.335 16.0503 6.57 16.2603 5.9775 15.9078L4.68 15.1653C3.9975 14.7753 3.765 13.8978 4.155 13.2228C4.8375 12.0453 4.2825 11.0853 2.925 11.0853C2.1375 11.0853 1.5 10.4403 1.5 9.66032Z" stroke="white" stroke-width="1.5" stroke-miterlimit="10" stroke-linecap="round" stroke-linejoin="round"/>
</svg>
