<svg width="16" height="16" viewBox="0 0 16 16" fill="none" xmlns="http://www.w3.org/2000/svg">
<path opacity="0.15" d="M10 7.99976C10 9.10433 9.10457 9.99976 8 9.99976C6.89543 9.99976 6 9.10433 6 7.99976C6 6.89519 6.89543 5.99976 8 5.99976C9.10457 5.99976 10 6.89519 10 7.99976Z" fill="#F4BE2A"/>
<path d="M2 7.99976H3.33333M3.33337 12.6664L4.66671 11.3331M8 12.6664V13.9998M11.3333 11.3331L12.6667 12.6664M3.33333 3.33309L4.66667 4.66642M12.6667 7.99976H14M11.3333 4.66642L12.6666 3.33309M8 1.99976V3.33309M10 7.99976C10 9.10432 9.10457 9.99976 8 9.99976C6.89543 9.99976 6 9.10432 6 7.99976C6 6.89519 6.89543 5.99976 8 5.99976C9.10457 5.99976 10 6.89519 10 7.99976Z" stroke="#F4BE2A" stroke-width="0.940625" stroke-linecap="round" stroke-linejoin="round"/>
</svg>
